<svg viewBox="0 0 100 100" fill="none" xmlns="http://www.w3.org/2000/svg">
  <defs>
    <linearGradient id="phoenix-grad" x1="0" y1="100" x2="100" y2="0" gradientUnits="userSpaceOnUse">
      <stop offset="0%" stop-color="#FF6A00" />
      <stop offset="100%" stop-color="#FF3C00" />
    </linearGradient>
    <filter id="glow" x="-20%" y="-20%" width="140%" height="140%">
      <feDropShadow dx="0" dy="1" stdDeviation="2" flood-color="#FF6A00" flood-opacity="0.5"/>
    </filter>
  </defs>

  <!-- Background circle for perfect contrast on both light and dark browser tabs -->
  <circle cx="50" cy="50" r="46" fill="#0A0A0B" stroke="url(#phoenix-grad)" stroke-width="4"/>

  <!-- Logo path scaled and centered inside the circle -->
  <g filter="url(#glow)" stroke="url(#phoenix-grad)" stroke-width="5.5" stroke-linejoin="miter" stroke-linecap="butt" transform="translate(16, 16) scale(0.68)">
    <!-- Eye -->
    <rect x="66" y="12" width="5" height="5" fill="url(#phoenix-grad)" stroke="none" />
    
    <!-- Head -->
    <path d="M 55 5 Q 62 12 70 10 L 82 10 Q 88 10 85 16 L 75 22 L 68 18 L 55 26 L 62 18 Z" fill="none" />
    
    <!-- Back -->
    <path d="M 75 32 Q 88 45 85 65 L 80 75" fill="none" />
    
    <!-- Wing & Chest -->
    <path d="M 62 30 Q 45 25 20 15 Q 30 30 40 35 L 15 45 Q 35 50 45 55 L 25 70 Q 45 75 60 75 Q 75 55 62 30 Z" fill="none" />
    
    <!-- Tail -->
    <path d="M 65 82 Q 55 70 40 68 L 50 75 Q 45 80 30 85 L 50 85 Q 45 90 35 95 Q 55 95 65 82 Z" fill="none" />
  </g>
</svg>
